<?xml version="1.0" encoding="utf-8"?>
<!-- Generator: Adobe Illustrator 26.0.3, SVG Export Plug-In . SVG Version: 6.00 Build 0)  -->
<svg version="1.0" id="katman_1" xmlns="http://www.w3.org/2000/svg" xmlns:xlink="http://www.w3.org/1999/xlink" x="0px" y="0px"
	 viewBox="0 0 800 600" style="enable-background:new 0 0 800 600;" xml:space="preserve">
<style type="text/css">
	.st0{fill:#3FD5E1;}
	.st1{fill:#49D9E5;}
	.st2{fill:#9CEAFF;}
	.st3{fill:#168992;}
	.st4{fill-rule:evenodd;clip-rule:evenodd;fill:#633001;}
	.st5{fill:#D1884F;}
	.st6{fill:#FEDC90;}
	.st7{fill:#633001;}
</style>
<path class="st0" d="M579.5,76.8H220.1c-23.8,0-43.1,19.3-43.1,43.1v359.4c0,23.8,19.3,43.1,43.1,43.1h359.4
	c23.8,0,43.1-19.3,43.1-43.1V119.9C622.6,96.1,603.3,76.8,579.5,76.8z"/>
<path class="st1" d="M579.5,76.8H220.1c-11.4,0-22.4,4.5-30.5,12.6c-8.1,8.1-12.6,19.1-12.6,30.5v71.9c0,41.9,16.7,82.2,46.3,111.8
	s69.9,46.3,111.8,46.3h129.4c41.9,0,82.2-16.7,111.8-46.3c29.7-29.7,46.3-69.9,46.3-111.8v-71.9c0-11.4-4.5-22.4-12.6-30.5
	C601.9,81.3,591,76.8,579.5,76.8z"/>
<path class="st2" d="M579.5,76.8H220.1c-11.4,0-22.4,4.5-30.5,12.6c-8.1,8.1-12.6,19.1-12.6,30.5v28.8c0-11.4,4.5-22.4,12.6-30.5
	c8.1-8.1,19.1-12.6,30.5-12.6h359.4c11.4,0,22.4,4.5,30.5,12.6c8.1,8.1,12.6,19.1,12.6,30.5v-28.8c0-11.4-4.5-22.4-12.6-30.5
	C601.9,81.3,591,76.8,579.5,76.8z"/>
<path class="st3" d="M579.5,493.6H220.1c-11.4,0-22.4-4.5-30.5-12.6c-8.1-8.1-12.6-19.1-12.6-30.5v28.8c0,11.4,4.5,22.4,12.6,30.5
	c8.1,8.1,19.1,12.6,30.5,12.6h359.4c11.4,0,22.4-4.5,30.5-12.6c8.1-8.1,12.6-19.1,12.6-30.5v-28.8c0,11.4-4.5,22.4-12.6,30.5
	C601.9,489.1,591,493.6,579.5,493.6z"/>
<path d="M615.5,479.3c0,9.5-3.8,18.7-10.5,25.4c-6.7,6.7-15.9,10.5-25.4,10.5H220.1c-9.5,0-18.7-3.8-25.4-10.5
	c-6.7-6.7-10.5-15.9-10.5-25.4V119.9c0-9.5,3.8-18.7,10.5-25.4c6.7-6.7,15.9-10.5,25.4-10.5h14.4V69.6h-14.4
	c-13.3,0-26.1,5.3-35.6,14.8c-9.4,9.4-14.7,22.2-14.8,35.6v359.4c0,13.3,5.3,26.1,14.8,35.6c9.4,9.4,22.2,14.7,35.6,14.8h359.4
	c13.3,0,26.1-5.3,35.6-14.8c9.4-9.4,14.7-22.2,14.8-35.6v-14.4h-14.4V479.3z"/>
<path d="M579.5,69.6H277.6V84h301.9c31.3,0,35.9,40.5,35.9,64.7v301.9h14.4V148.6C629.8,77.3,594.6,69.6,579.5,69.6z"/>
<path d="M248.9,69.6h14.4V84h-14.4V69.6z"/>
<path class="st4" d="M399.7,458.8c-47.3,0-85.4-11.3-112-31.4c-26.9-20.4-41.2-49.4-41.2-82.2c0-31.6,14.3-54.4,30.4-69.8
	c12.6-12.1,26.6-19.8,36.3-24.2c-2.2-6.7-4.9-15.4-7.4-24.4c-3.3-12.1-6.5-26.2-6.5-36.6c0-12.3,2.7-24.6,10-34.2
	c7.7-10.1,19.3-15.6,33.3-15.6c10.9,0,20.2,4,27.4,10.9c6.9,6.6,11.5,15.4,14.7,24.5c5.6,16.1,7.8,36.3,8.4,56.4h13.4
	c0.6-20.2,2.8-40.3,8.4-56.4c3.2-9.1,7.8-17.9,14.7-24.5c7.3-6.9,16.5-10.9,27.4-10.9c14,0,25.6,5.4,33.3,15.6
	c7.3,9.6,10,21.9,10,34.2c0,10.4-3.2,24.5-6.5,36.6c-2.5,9-5.2,17.8-7.4,24.4c9.7,4.4,23.7,12.2,36.3,24.2
	c16.1,15.4,30.4,38.2,30.4,69.8c0,32.8-14.3,61.8-41.2,82.2c-26.6,20.2-64.7,31.4-112,31.4H399.7z"/>
<path class="st5" d="M342.6,152c-20.5,0-29.9,15.3-29.9,36.4c0,16.8,10.9,50.4,15.4,63.4c1,2.9-0.6,6.2-3.5,7.3
	c-16.4,6.5-64.8,30.1-64.8,84.3c0,57.1,49.2,100.1,139.8,100.2c0,0,0.1,0,0.1,0c0,0,0.1,0,0.1,0c90.6-0.1,139.8-43.1,139.8-100.2
	c0-54.2-48.4-77.9-64.8-84.3c-2.9-1.1-4.5-4.4-3.5-7.3c4.5-13.1,15.4-46.7,15.4-63.4c0-21.1-9.4-36.4-29.9-36.4
	c-29.4,0-36.8,41.7-37.3,86.5c0,3-2.5,5.4-5.4,5.4h-29c-3,0-5.4-2.4-5.4-5.4C379.4,193.7,372,152,342.6,152z"/>
<path class="st6" d="M399.9,425.4c-66.6,0-139.9-35.7-140-81.8c0,0.1,0,0.1,0,0.2c0,57.1,49.2,100.2,140,100.2
	c90.8,0,140-43.1,140-100.2c0-0.1,0-0.1,0-0.2C539.8,389.7,466.5,425.4,399.9,425.4z"/>
<path class="st7" d="M362.9,329.4c0,15.6-7.4,23.7-16.4,23.7c-9.1,0-16.4-8.1-16.4-23.7c0-15.6,7.4-23.7,16.4-23.7
	C355.6,305.7,362.9,313.8,362.9,329.4z"/>
<path class="st7" d="M469.8,329.4c0,15.6-7.4,23.7-16.4,23.7c-9.1,0-16.4-8.1-16.4-23.7c0-15.6,7.4-23.7,16.4-23.7
	C462.5,305.7,469.8,313.8,469.8,329.4z"/>
</svg>
